<svg xmlns="http://www.w3.org/2000/svg" viewBox="0 0 841.9 595.3">
  <symbol id="icon-phone" viewBox="0 0 17 24">
    <path fill-rule="evenodd" clip-rule="evenodd" d="M2 2H14.0147V21.9698L2 21.9698L2 2ZM0 2C0 0.895432 0.895431 0 2 0H14.0147C15.1193 0 16.0147 0.895431 16.0147 2V21.9698C16.0147 23.0744 15.1193 23.9698 14.0147 23.9698H2C0.89543 23.9698 0 23.0744 0 21.9698V2ZM5.99023 17.9375C5.43795 17.9375 4.99023 18.3852 4.99023 18.9375C4.99023 19.4898 5.43795 19.9375 5.99023 19.9375H10.026C10.5782 19.9375 11.026 19.4898 11.026 18.9375C11.026 18.3852 10.5782 17.9375 10.026 17.9375H5.99023Z" fill="black"/>
  </symbol>
  <symbol id="icon-pin" viewBox="0 0 22 28">
    <path fill-rule="evenodd" clip-rule="evenodd" d="M19.5589 11.7209C19.5589 14.9389 17.3378 18.3934 14.695 21.2759C13.4209 22.6656 12.1402 23.8241 11.1757 24.6361C11.0349 24.7546 10.9013 24.8655 10.7757 24.9683C10.6511 24.8669 10.5187 24.7576 10.3793 24.6409C9.4154 23.8337 8.13554 22.681 6.86225 21.2956C4.22317 18.4243 2 14.9689 2 11.7209C2 6.8721 5.9307 2.94141 10.7795 2.94141C15.6282 2.94141 19.5589 6.8721 19.5589 11.7209ZM21.5589 11.7209C21.5589 19.766 10.7795 27.5003 10.7795 27.5003C10.7795 27.5003 0 19.8233 0 11.7209C0 5.76753 4.82613 0.941406 10.7795 0.941406C16.7328 0.941406 21.5589 5.76753 21.5589 11.7209ZM13.3385 11.4212C13.3385 12.835 12.1924 13.9811 10.7786 13.9811C9.36485 13.9811 8.21875 12.835 8.21875 11.4212C8.21875 10.0074 9.36485 8.86133 10.7786 8.86133C12.1924 8.86133 13.3385 10.0074 13.3385 11.4212ZM15.3385 11.4212C15.3385 13.9396 13.297 15.9811 10.7786 15.9811C8.26028 15.9811 6.21875 13.9396 6.21875 11.4212C6.21875 8.90286 8.26028 6.86133 10.7786 6.86133C13.297 6.86133 15.3385 8.90286 15.3385 11.4212Z" fill="black"/>
  </symbol>
  <symbol id="icon-email" viewBox="0 0 24 17">
    <path fill-rule="evenodd" clip-rule="evenodd" d="M21.9698 3.24608V14.9418L2 14.9418L2 3.19211L6.5782 6.35247L4.56348 8.36717C4.17295 8.75769 4.17295 9.39086 4.56347 9.78138C4.95399 10.1719 5.58716 10.1719 5.97768 9.78139L8.25152 7.50758L11.7511 9.92336L15.7787 7.29157L18.2686 9.78139C18.6591 10.1719 19.2922 10.1719 19.6828 9.78138C20.0733 9.39086 20.0733 8.75769 19.6828 8.36717L17.4893 6.17378L21.9698 3.24608ZM20.2205 2L3.7936 2L11.7817 7.51424L20.2205 2ZM21.9698 0C23.0744 0 23.9698 0.895431 23.9698 2V14.9418C23.9698 16.0463 23.0744 16.9418 21.9698 16.9418L2 16.9418C0.895431 16.9418 0 16.0463 0 14.9418V2C0 0.895429 0.895432 0 2 0H21.9698Z" fill="black"/>
  </symbol>
</svg>
